# AST/ASF file generated using VICON BodyLanguage
# -----------------------------------------------
:version 1.10
:name VICON
:units
  mass 1.0
  length 0.45
  angle deg
:documentation
   .ast/.asf automatically generated from VICON data using
   VICON BodyBuilder and BodyLanguage model FoxedUp or BRILLIANT.MOD
:root
   order TX TY TZ RX RY RZ
   axis XYZ
   position 0 0 0  
   orientation 0 0 0 
:bonedata
  begin
     id 1 
     name lhipjoint
     direction 0.62366 -0.717238 0.310833 
     length 2.53602 
     axis 0 0 0  XYZ
  end
  begin
     id 2 
     name lfemur
     direction 0.34202 -0.939693 0  
     length 7.40817  
     axis 0 0 20  XYZ
    dof rx ry rz
    limits (-160.0 20.0)
           (-70.0 70.0)
           (-60.0 70.0)
  end
  begin
     id 3 
     name ltibia
     direction 0.34202 -0.939693 0   
     length 7.7045   
     axis 0 0 20   XYZ
    dof rx
    limits (-10.0 170.0)
  end
  begin
     id 4 
     name lfoot
     direction 0.0673888 -0.185149 0.980397   
     length 2.09456   
     axis -90 7.62852e-016 20   XYZ
    dof rx rz
    limits (-45.0 90.0)
           (-70.0 20.0)
  end
  begin
     id 5 
     name ltoes
     direction 1.53575e-011 -4.21994e-011 1   
     length 1.05543   
     axis -90 7.62852e-016 20   XYZ
    dof rx
    limits (-90.0 20.0)
  end
  begin
     id 6 
     name rhipjoint
     direction -0.489018 -0.800347 0.346851   
     length 2.27268  
     axis 0 0 0  XYZ 
  end
  begin
     id 7 
     name rfemur
     direction -0.34202 -0.939693 0   
     length 7.55487   
     axis 0 0 -20   XYZ
    dof rx ry rz
    limits (-160.0 20.0)
           (-70.0 70.0)
           (-70.0 60.0)
  end
  begin
     id 8 
     name rtibia
     direction -0.34202 -0.939693 0   
     length 7.78969   
     axis 0 0 -20   XYZ
    dof rx
    limits (-10.0 170.0)
 end
 begin
     id 9 
     name rfoot
     direction -0.0859318 -0.236096 0.967923   
     length 2.19143  
     axis -90 -7.62852e-016 -20   XYZ
    dof rx rz
    limits (-45.0 90.0)
           (-20.0 70.0)
  end
  begin
     id 10 
     name rtoes
     direction -1.53538e-011 -4.21989e-011 1   
     length 1.09845   
     axis -90 -7.62852e-016 -20   XYZ
    dof rx
    limits (-90.0 20.0)
  end
  begin
     id 11 
     name lowerback
     direction -0.00762546 0.998978 -0.0445553   
     length 1.98161   
     axis 0 0 0   XYZ
    dof rx ry rz
    limits (-20.0 45.0)
           (-30.0 30.0)
           (-30.0 30.0)
  end
  begin
     id 12 
     name upperback
     direction 0.0422361 0.998867 -0.0219156   
     length 1.97558   
     axis 0 0 0   XYZ
    dof rx ry rz
    limits (-20.0 45.0)
           (-30.0 30.0)
           (-30.0 30.0)
  end
  begin
     id 13 
     name thorax
     direction 0.0442465 0.999021 7.47603e-005   
     length 1.97799   
     axis 0 0 0   XYZ
    dof rx ry rz
    limits (-20.0 45.0)
           (-30.0 30.0)
           (-30.0 30.0)
  end
  begin
     id 14 
     name lowerneck
     direction 0.00312169 0.984641 0.174564   
     length 1.78995   
     axis 0 0 0   XYZ
    dof rx ry rz
    limits (-20.0 45.0)
           (-30.0 30.0)
           (-30.0 30.0)
  end
  begin
     id 15 
     name upperneck
     direction -0.0383028 0.985255 -0.166749   
     length 1.83053   
     axis 0 0 0   XYZ
    dof rx ry rz
    limits (-20.0 45.0)
           (-30.0 30.0)
           (-30.0 30.0)
  end
  begin
     id 16
     name head
     direction -0.0129546 0.997059 -0.0755386  
     length 1.84088  
     axis 0 0 0   XYZ
    dof rx ry rz
    limits (-20.0 45.0)
           (-30.0 30.0)
           (-30.0 30.0)
  end
  begin
     id 17 
     name lclavicle
     direction 0.912857 0.370519 -0.171488  
     length 3.51279  
     axis 0 0 0   XYZ
    dof ry rz
    limits (-20.0 10.0)
           (0.0 20.0)
  end
  begin
     id 18 
     name lhumerus
     direction 1 -4.48962e-011 3.64361e-027   
     length 4.95663   
     axis 180 -30 -90   XYZ
    dof rx ry rz
    limits (-60.0 90.0)
           (-90.0 90.0)
           (-90.0 90.0)
  end
  begin
     id 19
     name lradius
     direction 1 -4.48974e-011 5.97202e-027   
     length 3.38177   
     axis 180 -30 -90   XYZ
    dof rx
    limits (-10.0 170.0)
  end
  begin
     id 20
     name lwrist
     direction 1 -4.4896e-011 9.83288e-027   
     length 1.69088   
     axis -9.31221e-015 90 90   XYZ
    dof ry
    limits (-180.0 0.0)
 end
  begin
     id 21 
     name lhand
     direction 1 -4.4902e-011 1.96551e-026   
     length 0.662909   
     axis -1.25475e-014 90 90   XYZ
    dof rx rz
    limits (-90.0 90.0)
           (-45.0 45.0)
  end
  begin
     id 22 
     name lfingers
     direction 1 -4.48971e-011 3.93277e-026   
     length 0.534454   
     axis -2.50945e-014 90 90   XYZ
    dof rx
    limits (0.0 90.0)
  end
  begin
     id 23
     name lthumb
     direction 0.707107 -6.34933e-011 0.707107   
     length 0.767373   
     axis -90 45 -4.80359e-014   XYZ
    dof rx rz
    limits (-45.0 45.0)
           (-45.0 45.0)
  end
  begin
     id 24 
     name rclavicle
     direction -0.900919 0.395364 -0.178976   
     length 3.40627  
     axis 0 0 0   XYZ 
    dof ry rz
    limits (-10.0 20.0)
           (-20.0 0.0)
  end
  begin
     id 25 
     name rhumerus
     direction -1 -4.48969e-011 1.03875e-027  
     length 5.08365   
     axis 180 30 90   XYZ
    dof rx ry rz
    limits (-90.0 60.0)
           (-90.0 90.0)
           (-90.0 90.0)
  end
  begin
     id 26 
     name rradius
     direction -1 -4.48951e-011 5.02733e-027   
     length 3.35984   
     axis 180 30 90   XYZ
    dof rx
    limits (-10.0 170.0)
  end
  begin
     id 27 
     name rwrist
     direction -1 -4.49011e-011 9.82828e-027   
     length 1.67992   
     axis -9.31221e-015 -90 -90   XYZ
    dof ry
    limits (-180.0 0.0)
  end
  begin
     id 28
     name rhand
     direction -1 -4.48894e-011 1.96774e-026   
     length 0.820764   
     axis -1.25475e-014 -90 -90   XYZ
    dof rx rz
    limits (-90.0 90.0)
           (-45.0 45.0)
  end
  begin
     id 29
     name rfingers
     direction -1 -4.49095e-011 3.92833e-026   
     length 0.661721   
     axis -2.50945e-014 -90 -90   XYZ
    dof rx
    limits (0.0 90.0)
  end
  begin
     id 30
     name rthumb
     direction -0.707107 -6.34881e-011 0.707107   
     length 0.950103   
     axis -90 -45 4.80359e-014   XYZ
    dof rx rz
    limits (-45.0 45.0)
           (-45.0 45.0)
  end
:hierarchy
  begin
    root lhipjoint rhipjoint lowerback
    lhipjoint lfemur
    lfemur ltibia
    ltibia lfoot
    lfoot ltoes
    rhipjoint rfemur
    rfemur rtibia
    rtibia rfoot
    rfoot rtoes
    lowerback upperback
    upperback thorax
    thorax lowerneck lclavicle rclavicle
    lowerneck upperneck
    upperneck head
    lclavicle lhumerus
    lhumerus lradius
    lradius lwrist
    lwrist lhand lthumb
    lhand lfingers
    rclavicle rhumerus
    rhumerus rradius
    rradius rwrist
    rwrist rhand rthumb
    rhand rfingers
  end

#!OML:ASF I:\golf\golf\golf 2\Subject 1\2002-09-07\Subject1.ASF
:FULLY-SPECIFIED
:DEGREES
141
root -7.10957 17.6202 1.91639 -142.086 86.4628 -157.679
lowerback 1.71969 1.77318 -1.35726
upperback 2.22809 2.40824 4.3409
thorax 1.08495 1.19269 5.22379
lowerneck -14.0743 -2.80724 0.363907
upperneck 42.4525 -0.0433569 -4.15807
head 18.2844 0.23508 -1.78929
rclavicle -7.95139e-016 3.81667e-014
rhumerus -7.25218 -0.629381 -101.86
rradius 24.5645
rwrist -46.0675
rhand -18.6181 -13.101
rfingers 7.12502
rthumb 7.67374 -42.9418
lclavicle -7.95139e-016 3.81667e-014
lhumerus -7.71173 -41.0874 108.513
lradius 22.4802
lwrist 27.4024
lhand -11.6031 70.7522
lfingers 7.12502
lthumb -165.561 79.7701
rfemur -29.3263 -5.39965 9.18266
rtibia 32.4433
rfoot -11.2238 -8.96392
rtoes -8.25987
lfemur -30.5583 8.26186 -10.366
ltibia 32.3203
lfoot -13.4163 -7.03059
ltoes -20.9316
142
root -7.11006 17.6202 1.91325 -141.576 86.4281 -157.167
lowerback 1.7009 1.78873 -1.26815
upperback 2.24264 2.42965 4.33584
thorax 1.112 1.2042 5.16855
lowerneck -14.0828 -2.80617 0.375234
upperneck 42.4484 -0.0739226 -4.09647
head 18.2824 0.232684 -1.76791
rclavicle -1.07344e-014 -4.29375e-014
rhumerus -7.21048 -0.642406 -101.869
rradius 24.5887
rwrist -46.2009
rhand -18.8061 -13.096
rfingers 7.12502
rthumb 7.49228 -42.9433
lclavicle -1.07344e-014 -4.29375e-014
lhumerus -7.69222 -40.8469 108.547
lradius 22.3898
lwrist 27.2272
lhand -11.5631 70.5773
lfingers 7.12502
lthumb -165.522 79.9478
rfemur -29.3079 -5.39939 9.22216
rtibia 32.4229
rfoot -11.2369 -8.98428
rtoes -7.97331
lfemur -30.5609 8.22581 -10.317
ltibia 32.3296
lfoot -13.4663 -7.01155
ltoes -20.8053
143
root -7.11165 17.6202 1.91058 -141.385 86.4103 -156.976
lowerback 1.71522 1.79431 -1.21146
upperback 2.23027 2.43787 4.32373
thorax 1.09312 1.20958 5.12264
lowerneck -14.03 -2.80273 0.437835
upperneck 42.4218 -0.0842038 -4.11476
head 18.2501 0.236415 -1.78815
rclavicle 0 -1.11319e-014
rhumerus -7.1756 -0.772654 -101.905
rradius 24.571
rwrist -46.2201
rhand -18.9638 -13.1042
rfingers 7.12502
rthumb 7.34005 -42.9569
lclavicle 0 -1.11319e-014
lhumerus -7.75998 -40.4186 108.631
lradius 22.3102
lwrist 26.8157
lhand -11.3281 70.3186
lfingers 7.12502
lthumb -165.296 80.2229
rfemur -29.3046 -5.41599 9.23862
rtibia 32.4121
rfoot -11.2253 -8.97921
rtoes -7.96201
lfemur -30.5572 8.14527 -10.2812
ltibia 32.3297
lfoot -13.4541 -6.95848
ltoes -20.6579
144
root -7.11529 17.6189 1.91046 -141.9 86.4118 -157.458
lowerback 1.80469 1.76816 -1.26869
upperback 2.20743 2.4037 4.32986
thorax 1.0203 1.19312 5.15822
lowerneck -13.9644 -2.76166 0.466388
upperneck 42.4214 -0.0211587 -4.12607
head 18.2345 0.266137 -1.78565
rclavicle -5.96354e-015 -7.15625e-014
rhumerus -7.18211 -0.92357 -101.931
rradius 24.5306
rwrist -46.0019
rhand -18.9052 -13.1759
rfingers 7.12502
rthumb 7.39664 -43.0266
lclavicle -5.96354e-015 -7.15625e-014
lhumerus -7.78116 -40.3656 108.605
lradius 22.3417
lwrist 26.888
lhand -11.2095 70.175
lfingers 7.12502
lthumb -165.181 80.3749
rfemur -29.2799 -5.40565 9.2067
rtibia 32.4073
rfoot -11.2173 -8.99784
rtoes -7.80005
lfemur -30.5359 8.07589 -10.2972
ltibia 32.3175
lfoot -13.4243 -6.90928
ltoes -20.2375
145
root -7.11813 17.6174 1.90999 -142.932 86.4394 -158.467
lowerback 1.85435 1.74906 -1.37989
upperback 2.20617 2.37756 4.34448
thorax 0.988937 1.17904 5.23544
lowerneck -13.9517 -2.75839 0.397617
upperneck 42.4271 0.000974624 -4.10702
head 18.2367 0.266826 -1.75994
rclavicle -3.93594e-014 -6.36111e-014
rhumerus -7.18091 -1.0318 -101.898
rradius 24.5123
rwrist -45.8404
rhand -18.7533 -13.2579
rfingers 7.12502
rthumb 7.54329 -43.1034
lclavicle -3.93594e-014 -6.36111e-014
lhumerus -7.69367 -40.8109 108.489
lradius 22.4964
lwrist 27.5362
lhand -11.2355 70.2551
lfingers 7.12502
lthumb -165.206 80.2929
rfemur -29.2577 -5.44187 9.13149
rtibia 32.3974
rfoot -11.2064 -8.93049
rtoes -7.28214
lfemur -30.5201 8.04291 -10.3772
ltibia 32.3026
lfoot -13.4026 -6.86749
ltoes -19.9851
146
root -7.11826 17.6184 1.90763 -142.995 86.4537 -158.538
lowerback 1.81682 1.74028 -1.41627
upperback 2.21785 2.36543 4.37093
thorax 1.02084 1.17186 5.28576
lowerneck -13.9902 -2.78952 0.329808
upperneck 42.4597 -0.0117005 -4.12694
head 18.2678 0.24863 -1.7609
rclavicle 2.3059e-014 6.67916e-014
rhumerus -7.14542 -1.0709 -101.867
rradius 24.4845
rwrist -45.7995
rhand -18.681 -13.2479
rfingers 7.12502
rthumb 7.61308 -43.0908
lclavicle 2.3059e-014 6.67916e-014
lhumerus -7.60504 -41.0446 108.417
lradius 22.6137
lwrist 27.9984
lhand -11.2561 70.2726
lfingers 7.12502
lthumb -165.226 80.274
rfemur -29.2514 -5.47637 9.11693
rtibia 32.3738
rfoot -11.1967 -8.84859
rtoes -6.74474
lfemur -30.5134 8.02881 -10.3958
ltibia 32.2912
lfoot -13.3784 -6.85107
ltoes -20.0595
147
root -7.11828 17.6203 1.90517 -142.646 86.4501 -158.206
lowerback 1.78237 1.71792 -1.4145
upperback 2.21346 2.33565 4.38775
thorax 1.03808 1.15673 5.30402
lowerneck -14.0056 -2.7804 0.327911
upperneck 42.4904 0.0172973 -4.14948
head 18.2923 0.257574 -1.76694
rclavicle -4.77083e-015 6.36111e-015
rhumerus -7.10454 -1.23582 -101.88
rradius 24.4011
rwrist -45.55
rhand -18.4388 -13.1912
rfingers 7.12502
rthumb 7.84684 -43.0256
lclavicle -4.77083e-015 6.36111e-015
lhumerus -7.58632 -40.6546 108.445
lradius 22.5693
lwrist 27.807
lhand -11.258 70.406
lfingers 7.12502
lthumb -165.228 80.1405
rfemur -29.2511 -5.48788 9.13412
rtibia 32.3365
rfoot -11.1328 -8.8587
rtoes -7.09746
lfemur -30.5007 7.96147 -10.355
ltibia 32.2699
lfoot -13.3473 -6.83956
ltoes -19.8039
148
root -7.1186 17.6219 1.90471 -142.285 86.4543 -157.841
lowerback 1.77695 1.7197 -1.40589
upperback 2.21363 2.33795 4.38337
thorax 1.04154 1.15791 5.29468
lowerneck -13.9807 -2.75948 0.35988
upperneck 42.4593 0.029584 -4.14042
head 18.2665 0.267782 -1.76507
rclavicle -1.63003e-014 -1.11319e-014
rhumerus -7.06462 -1.491 -101.875
rradius 24.3468
rwrist -45.3252
rhand -18.0996 -13.2219
rfingers 7.12502
rthumb 8.17417 -43.0438
lclavicle -1.63003e-014 -1.11319e-014
lhumerus -7.63104 -40.1793 108.538
lradius 22.4901
lwrist 27.3813
lhand -11.1782 70.5036
lfingers 7.12502
lthumb -165.151 80.0485
rfemur -29.2275 -5.4963 9.15649
rtibia 32.2872
rfoot -11.0911 -8.87125
rtoes -7.59617
lfemur -30.4658 7.92581 -10.3205
ltibia 32.2365
lfoot -13.333 -6.8204
ltoes -19.4358
149
root -7.11833 17.6238 1.90467 -141.717 86.4475 -157.239
lowerback 1.76631 1.7384 -1.33526
upperback 2.24195 2.36272 4.35581
thorax 1.07792 1.17035 5.22628
lowerneck -13.9997 -2.75631 0.383204
upperneck 42.4416 -0.00104933 -4.08951
head 18.2588 0.264601 -1.751
rclavicle -5.96354e-015 4.29375e-014
rhumerus -7.01066 -1.6055 -101.883
rradius 24.3431
rwrist -45.294
rhand -17.9441 -13.2691
rfingers 7.12502
rthumb 8.3243 -43.0851
lclavicle -5.96354e-015 4.29375e-014
lhumerus -7.61029 -39.9955 108.534
lradius 22.4119
lwrist 27.1737
lhand -10.9638 70.0444
lfingers 7.12502
lthumb -164.945 80.523
rfemur -29.1612 -5.45113 9.188
rtibia 32.231
rfoot -11.1626 -8.88907
rtoes -7.07893
lfemur -30.4441 7.97575 -10.3031
ltibia 32.2088
lfoot -13.3652 -6.79877
ltoes -19.751
150
root -7.11906 17.6248 1.9027 -141.899 86.4486 -157.395
lowerback 1.75344 1.73834 -1.26725
upperback 2.27229 2.36166 4.30399
thorax 1.12112 1.16952 5.13453
lowerneck -14.0463 -2.75045 0.427558
upperneck 42.4455 -0.0221022 -4.06287
head 18.2721 0.265487 -1.75156
rclavicle -2.14687e-014 -4.29375e-014
rhumerus -6.93274 -1.74319 -101.935
rradius 24.3109
rwrist -45.2064
rhand -17.7327 -13.277
rfingers 7.12502
rthumb 8.52827 -43.0848
lclavicle -2.14687e-014 -4.29375e-014
lhumerus -7.50828 -39.874 108.439
lradius 22.329
lwrist 27.0783
lhand -10.7593 69.6806
lfingers 7.12502
lthumb -164.748 80.9017
rfemur -29.1009 -5.42495 9.16083
rtibia 32.1725
rfoot -11.1927 -8.86955
rtoes -6.26404
lfemur -30.4463 8.01829 -10.3453
ltibia 32.1917
lfoot -13.3742 -6.79037
ltoes -20.1944
151
root -7.12091 17.6258 1.89954 -142.218 86.4545 -157.727
lowerback 1.74308 1.73198 -1.2604
upperback 2.27494 2.35283 4.29434
thorax 1.13115 1.16492 5.12111
lowerneck -14.0568 -2.74456 0.452728
upperneck 42.4242 -0.011116 -4.09843
head 18.2622 0.267833 -1.77072
rclavicle -1.19271e-014 -2.70347e-014
rhumerus -6.88061 -1.86349 -101.935
rradius 24.3056
rwrist -45.1986
rhand -17.5599 -13.3126
rfingers 7.12502
rthumb 8.6951 -43.1135
lclavicle -1.19271e-014 -2.70347e-014
lhumerus -7.43539 -39.6769 108.43
lradius 22.2978
lwrist 26.9444
lhand -10.6422 69.8015
lfingers 7.12502
lthumb -164.635 80.7894
rfemur -29.0868 -5.43613 9.12764
rtibia 32.1107
rfoot -11.1418 -8.81379
rtoes -5.8358
lfemur -30.4459 8.02618 -10.3847
ltibia 32.1852
lfoot -13.3446 -6.79538
ltoes -20.0677
152
root -7.12334 17.6269 1.89569 -141.534 86.3983 -157.097
lowerback 1.72399 1.72834 -1.18187
upperback 2.2447 2.34985 4.32288
thorax 1.11283 1.16539 5.10628
lowerneck -14.046 -2.75322 0.461612
upperneck 42.4129 -0.00827102 -4.14485
head 18.2524 0.264305 -1.7932
rclavicle -9.14409e-015 -4.45278e-014
rhumerus -6.87943 -1.87013 -101.893
rradius 24.3608
rwrist -45.2869
rhand -17.5128 -13.455
rfingers 7.12502
rthumb 8.74049 -43.254
lclavicle -9.14409e-015 -4.45278e-014
lhumerus -7.42033 -39.6037 108.474
lradius 22.3057
lwrist 26.9407
lhand -10.5732 69.877
lfingers 7.12502
lthumb -164.568 80.719
rfemur -29.1154 -5.39805 9.18192
rtibia 32.0459
rfoot -11.0765 -8.90739
rtoes -6.35277
lfemur -30.4979 7.98407 -10.3199
ltibia 32.1863
lfoot -13.3464 -6.78282
ltoes -19.9271
153
root -7.12494 17.6279 1.89286 -140.688 86.3401 -156.306
lowerback 1.69542 1.73831 -1.07314
upperback 2.20174 2.36485 4.32539
thorax 1.08715 1.17536 5.04678
lowerneck -14.0363 -2.77734 0.492921
upperneck 42.4486 -0.0462247 -4.15044
head 18.2692 0.255867 -1.80903
rclavicle 3.57812e-015 -9.54166e-015
rhumerus -6.90168 -1.93512 -101.869
rradius 24.4076
rwrist -45.2722
rhand -17.3949 -13.6644
rfingers 7.12502
rthumb 8.85432 -43.4587
lclavicle 3.57812e-015 -9.54166e-015
lhumerus -7.4531 -39.6848 108.517
lradius 22.306
lwrist 27.1038
lhand -10.5849 69.9206
lfingers 7.12502
lthumb -164.58 80.6746
rfemur -29.1513 -5.37278 9.25558
rtibia 31.9803
rfoot -10.9697 -8.99943
rtoes -7.23974
lfemur -30.5703 7.99139 -10.2497
ltibia 32.1847
lfoot -13.4064 -6.81613
ltoes -20.014
